<svg width="64" height="64" viewBox="0 0 64 64" fill="none" xmlns="http://www.w3.org/2000/svg">
<path d="M32 34C32 34.5304 31.7893 35.0391 31.4142 35.4142C31.0391 35.7893 30.5304 36 30 36H18C17.4696 36 16.9609 35.7893 16.5858 35.4142C16.2107 35.0391 16 34.5304 16 34C16 33.4696 16.2107 32.9609 16.5858 32.5858C16.9609 32.2107 17.4696 32 18 32H30C30.5304 32 31.0391 32.2107 31.4142 32.5858C31.7893 32.9609 32 33.4696 32 34ZM30 24H18C17.4696 24 16.9609 24.2107 16.5858 24.5858C16.2107 24.9609 16 25.4696 16 26C16 26.5304 16.2107 27.0391 16.5858 27.4142C16.9609 27.7893 17.4696 28 18 28H30C30.5304 28 31.0391 27.7893 31.4142 27.4142C31.7893 27.0391 32 26.5304 32 26C32 25.4696 31.7893 24.9609 31.4142 24.5858C31.0391 24.2107 30.5304 24 30 24ZM58 40.3675V56C58.0032 56.3526 57.9131 56.6998 57.7388 57.0063C57.5646 57.3129 57.3124 57.5679 57.0078 57.7456C56.7033 57.9232 56.3571 58.0172 56.0045 58.018C55.6519 58.0188 55.3054 57.9263 55 57.75L49 54.315L43 57.75C42.6946 57.9263 42.3481 58.0188 41.9955 58.018C41.6429 58.0172 41.2967 57.9232 40.9922 57.7456C40.6876 57.5679 40.4354 57.3129 40.2612 57.0063C40.0869 56.6998 39.9968 56.3526 40 56V50H10C8.93913 50 7.92172 49.5786 7.17157 48.8284C6.42143 48.0783 6 47.0609 6 46V14C6 12.9391 6.42143 11.9217 7.17157 11.1716C7.92172 10.4214 8.93913 10 10 10H54C55.0609 10 56.0783 10.4214 56.8284 11.1716C57.5786 11.9217 58 12.9391 58 14V21.6325C59.2643 22.8432 60.2704 24.2973 60.9578 25.9072C61.6451 27.5171 61.9994 29.2495 61.9994 31C61.9994 32.7505 61.6451 34.4829 60.9578 36.0928C60.2704 37.7027 59.2643 39.1568 58 40.3675ZM40 46V40.3675C37.8205 38.2656 36.4431 35.4688 36.1055 32.4598C35.7678 29.4508 36.4911 26.4183 38.1505 23.8856C39.81 21.3529 42.3014 19.4789 45.195 18.587C48.0885 17.695 51.2027 17.8411 54 19V14H10V46H40ZM54 43C52.4161 43.6618 50.7166 44.0025 49 44.0025C47.2834 44.0025 45.5839 43.6618 44 43V52.555L48 50.265C48.3022 50.0922 48.6444 50.0014 48.9925 50.0014C49.3406 50.0014 49.6828 50.0922 49.985 50.265L53.985 52.555L54 43ZM58 31C58 29.22 57.4722 27.4799 56.4832 25.9999C55.4943 24.5198 54.0887 23.3663 52.4441 22.6851C50.7996 22.0039 48.99 21.8257 47.2442 22.1729C45.4984 22.5202 43.8947 23.3774 42.636 24.636C41.3774 25.8947 40.5202 27.4984 40.1729 29.2442C39.8257 30.99 40.0039 32.7996 40.6851 34.4441C41.3663 36.0887 42.5198 37.4943 43.9999 38.4832C45.4799 39.4722 47.22 40 49 40C50.1819 40 51.3522 39.7672 52.4441 39.3149C53.5361 38.8626 54.5282 38.1997 55.364 37.364C56.1997 36.5282 56.8626 35.5361 57.3149 34.4441C57.7672 33.3522 58 32.1819 58 31Z" fill="white"/>
</svg>
