<svg width="126" height="126" viewBox="0 0 126 126" fill="none" xmlns="http://www.w3.org/2000/svg">
<path d="M52.0671 0.0671211C25.1671 3.86712 3.86718 25.0671 0.167176 51.9671C-0.432824 56.4671 3.06718 60.4671 7.66718 60.4671H53.1672C57.3672 60.4671 60.6672 57.0671 60.6672 52.9671V7.46715C60.5672 2.96715 56.5671 -0.532879 52.0671 0.0671211Z" fill="white"/>
<path d="M0.0671211 72.9672C3.86712 99.8672 25.0671 121.167 51.9671 124.867C56.4671 125.467 60.4671 121.967 60.4671 117.367V71.8672C60.4671 67.6672 57.0671 64.3672 52.9671 64.3672H7.46715C2.96715 64.4672 -0.532879 68.4672 0.0671211 72.9672Z" fill="white"/>
<path d="M72.9672 124.967C99.8672 121.167 121.167 99.9671 124.867 73.0671C125.467 68.5671 121.967 64.5671 117.367 64.5671H71.8671C67.6671 64.5671 64.3671 67.9671 64.3671 72.0671V117.567C64.4671 122.067 68.4672 125.567 72.9672 124.967Z" fill="white"/>
<path d="M64.4672 7.56723V53.0672C64.4672 57.2672 67.8672 60.5672 71.9672 60.5672H117.467C121.967 60.5672 125.567 56.5672 124.967 52.0672C121.167 25.1672 99.9671 3.86726 73.0671 0.167264C68.4671 -0.532736 64.4672 2.96723 64.4672 7.56723Z" fill="white"/>
</svg>
