<svg width="125" height="125" viewBox="0 0 125 125" fill="none" xmlns="http://www.w3.org/2000/svg">
<path d="M75.4397 0H49.5605C45.164 0 41.6668 3.49722 41.6668 7.8937V33.773C41.6668 38.1695 45.164 41.6666 49.5605 41.6666H75.4397C79.8362 41.6666 83.3334 38.1695 83.3334 33.773V7.8937C83.3334 3.49722 79.7363 0 75.4397 0Z" fill="white"/>
<path d="M49.5605 124.9H75.4397C79.8362 124.9 83.3334 121.403 83.3334 117.006V91.1271C83.3334 86.7306 79.8362 83.2334 75.4397 83.2334H49.5605C45.164 83.2334 41.6668 86.7306 41.6668 91.1271V117.006C41.6668 121.303 45.264 124.9 49.5605 124.9Z" fill="white"/>
<path d="M83.3332 49.4604V75.3397C83.3332 79.7362 86.8304 83.2334 91.2269 83.2334H117.106C121.503 83.2334 125 79.7362 125 75.3397V49.4604C125 45.064 121.503 41.5668 117.106 41.5668H91.2269C86.8304 41.5668 83.3332 45.1639 83.3332 49.4604Z" fill="white"/>
<path d="M0 49.4604V75.3397C0 79.7362 3.49722 83.2334 7.8937 83.2334H33.773C38.1695 83.2334 41.6667 79.7362 41.6667 75.3397V49.4604C41.6667 45.064 38.1695 41.5668 33.773 41.5668H7.8937C3.59714 41.5668 0 45.1639 0 49.4604Z" fill="white"/>
</svg>
