<svg width="64" height="64" viewBox="0 0 64 64" fill="none" xmlns="http://www.w3.org/2000/svg">
<path d="M58.83 20.3424L43.6575 5.17238C43.2861 4.80085 42.8451 4.50613 42.3597 4.30506C41.8743 4.10398 41.3541 4.00049 40.8287 4.00049C40.3034 4.00049 39.7832 4.10398 39.2978 4.30506C38.8124 4.50613 38.3714 4.80085 38 5.17238L24.5925 18.6224C21.9275 17.7874 15.8425 16.7799 9.49249 21.9074C9.05481 22.2593 8.69614 22.6995 8.43984 23.1993C8.18355 23.699 8.03536 24.2471 8.00494 24.8079C7.97452 25.3687 8.06254 25.9297 8.26327 26.4542C8.464 26.9788 8.77295 27.4552 9.16999 27.8524L21.25 39.9274L10.585 50.5849C10.2097 50.9602 9.99888 51.4692 9.99888 51.9999C9.99888 52.5306 10.2097 53.0396 10.585 53.4149C10.9603 53.7902 11.4693 54.001 12 54.001C12.5307 54.001 13.0397 53.7902 13.415 53.4149L24.0725 42.7499L36.145 54.8224C36.5161 55.1951 36.9571 55.4909 37.4427 55.693C37.9283 55.895 38.449 55.9993 38.975 55.9999C39.07 55.9999 39.1625 55.9999 39.2575 55.9999C39.8277 55.9604 40.3827 55.7986 40.8848 55.5255C41.387 55.2525 41.8244 54.8745 42.1675 54.4174C47.0775 47.8924 46.605 42.5874 45.465 39.4174L58.8325 25.9999C59.2039 25.6283 59.4984 25.1871 59.6993 24.7017C59.9001 24.2162 60.0034 23.696 60.0031 23.1706C60.0029 22.6453 59.8992 22.1251 59.6979 21.6398C59.4966 21.1545 59.2017 20.7137 58.83 20.3424ZM56 23.1724L41.6825 37.5374C41.3868 37.8342 41.1918 38.2163 41.125 38.6299C41.0581 39.0435 41.1229 39.4676 41.31 39.8424C43.675 44.5749 40.86 49.4899 38.975 51.9974L12 25.0199C15.02 22.5849 17.91 21.9424 20.12 21.9424C21.5223 21.9232 22.9131 22.1983 24.2025 22.7499C24.5787 22.9382 25.0046 23.003 25.4198 22.9352C25.835 22.8675 26.2182 22.6705 26.515 22.3724L40.83 7.99988L56 23.1699V23.1724Z" fill="white"/>
</svg>
