<svg width="64" height="64" viewBox="0 0 64 64" fill="none" xmlns="http://www.w3.org/2000/svg">
<path d="M20.1425 29.25C20.2406 29.0058 20.386 28.7834 20.5703 28.5955C20.7546 28.4076 20.9741 28.2579 21.2164 28.155C21.4586 28.0521 21.7188 27.998 21.9819 27.9959C22.2451 27.9938 22.5061 28.0436 22.75 28.1425L30 31.045V24C30 23.4696 30.2107 22.9609 30.5858 22.5858C30.9609 22.2107 31.4696 22 32 22C32.5304 22 33.0391 22.2107 33.4142 22.5858C33.7893 22.9609 34 23.4696 34 24V31.045L41.25 28.1425C41.4939 28.044 41.7549 27.9945 42.0179 27.9969C42.281 27.9992 42.541 28.0534 42.7831 28.1562C43.0252 28.2591 43.2448 28.4086 43.4291 28.5963C43.6134 28.7839 43.759 29.0061 43.8575 29.25C43.956 29.4939 44.0055 29.7549 44.0031 30.0179C44.0008 30.281 43.9466 30.541 43.8438 30.7831C43.7409 31.0252 43.5914 31.2448 43.4037 31.4291C43.2161 31.6134 42.9939 31.759 42.75 31.8575L35.1725 34.8875L39.6 40.8C39.9183 41.2243 40.0549 41.7577 39.9799 42.2828C39.9049 42.8079 39.6243 43.2817 39.2 43.6C38.7757 43.9183 38.2423 44.0549 37.7172 43.9799C37.1921 43.9049 36.7183 43.6243 36.4 43.2L32 37.3325L27.6 43.2C27.4424 43.4101 27.245 43.5871 27.019 43.7209C26.793 43.8548 26.5428 43.9428 26.2828 43.9799C26.0228 44.017 25.7581 44.0026 25.5036 43.9374C25.2492 43.8722 25.0101 43.7576 24.8 43.6C24.5899 43.4424 24.4129 43.245 24.2791 43.019C24.1452 42.793 24.0572 42.5428 24.0201 42.2828C23.983 42.0228 23.9974 41.7581 24.0626 41.5036C24.1278 41.2492 24.2424 41.0101 24.4 40.8L28.835 34.8875L21.25 31.8575C21.0058 31.7594 20.7834 31.614 20.5955 31.4297C20.4076 31.2454 20.2579 31.0259 20.155 30.7836C20.0521 30.5414 19.998 30.2812 19.9959 30.0181C19.9938 29.7549 20.0436 29.4939 20.1425 29.25ZM56 14V28C56 41.18 49.62 49.1675 44.2675 53.5475C38.5025 58.2625 32.7675 59.865 32.5175 59.93C32.1737 60.0235 31.8113 60.0235 31.4675 59.93C31.2175 59.865 25.49 58.2625 19.7175 53.5475C14.38 49.1675 8 41.18 8 28V14C8 12.9391 8.42143 11.9217 9.17157 11.1716C9.92172 10.4214 10.9391 10 12 10H52C53.0609 10 54.0783 10.4214 54.8284 11.1716C55.5786 11.9217 56 12.9391 56 14ZM52 14H12V28C12 37.325 15.455 44.8775 22.2675 50.4525C25.1681 52.8248 28.4621 54.6702 32 55.905C35.5848 54.6483 38.9199 52.7695 41.8525 50.355C48.585 44.79 52 37.2675 52 28V14Z" fill="white"/>
</svg>
