<svg width="125" height="125" viewBox="0 0 125 125" fill="none" xmlns="http://www.w3.org/2000/svg">
<path d="M0 74.5404V104.716C0 107.614 3.49998 109.113 5.59998 107.014L35.7999 76.8386C37.8999 74.7403 36.4 71.243 33.5 71.243H3.19995C1.39995 71.243 0 72.6419 0 74.5404Z" fill="white"/>
<path d="M35.7999 48.1615L5.59998 17.9857C3.49998 15.8873 0 17.3861 0 20.2838V50.4597C0 52.2583 1.49993 53.757 3.29993 53.757H33.5C36.4 53.757 37.7999 50.2598 35.7999 48.1615Z" fill="white"/>
<path d="M50.3999 0.0999756H20.1999C17.2999 0.0999756 15.7999 3.59717 17.8999 5.69549L48.1 35.8714C50.2 37.9697 53.6999 36.4709 53.6999 33.5732V3.39734C53.6999 1.49886 52.2999 0.0999756 50.3999 0.0999756Z" fill="white"/>
<path d="M71.1997 3.29737V33.4732C71.1997 36.3709 74.6997 37.8697 76.7997 35.7714L107 5.59553C109.1 3.49721 107.6 0 104.7 0H74.4998C72.5998 0.0999201 71.1997 1.4988 71.1997 3.29737Z" fill="white"/>
<path d="M89.1 76.8386L119.3 107.014C121.4 109.113 124.9 107.614 124.9 104.716V74.5404C124.9 72.7418 123.4 71.243 121.6 71.243H91.3999C88.4999 71.243 87.1 74.7403 89.1 76.8386Z" fill="white"/>
<path d="M125 50.4597V20.2838C125 17.3861 121.5 15.8873 119.4 17.9857L89.2 48.1615C87.1 50.2598 88.6001 53.757 91.5001 53.757H121.7C123.5 53.757 125 52.3582 125 50.4597Z" fill="white"/>
<path d="M71.1997 91.5268V121.703C71.1997 123.501 72.6998 125 74.4998 125H104.7C107.6 125 109.1 121.503 107 119.404L76.7997 89.2286C74.6997 87.1303 71.1997 88.5292 71.1997 91.5268Z" fill="white"/>
<path d="M48.0998 89.1286L17.8998 119.305C15.7998 121.403 17.2998 124.9 20.1998 124.9H50.3998C52.1998 124.9 53.6998 123.401 53.6998 121.603V91.4268C53.6998 88.5291 50.1998 87.1302 48.0998 89.1286Z" fill="white"/>
</svg>
