<svg width="64" height="64" viewBox="0 0 64 64" fill="none" xmlns="http://www.w3.org/2000/svg">
<path d="M34 20.0001V30.8676L43.03 36.2851C43.4849 36.5583 43.8126 37.0009 43.941 37.5157C44.0695 38.0305 43.9882 38.5752 43.715 39.0301C43.4419 39.4849 42.9992 39.8126 42.4844 39.9411C41.9696 40.0696 41.4249 39.9883 40.97 39.7151L30.97 33.7151C30.6741 33.5373 30.4292 33.2859 30.2592 32.9853C30.0892 32.6848 29.9999 32.3454 30 32.0001V20.0001C30 19.4697 30.2107 18.9609 30.5858 18.5859C30.9609 18.2108 31.4696 18.0001 32 18.0001C32.5305 18.0001 33.0392 18.2108 33.4142 18.5859C33.7893 18.9609 34 19.4697 34 20.0001ZM56 14.0001C55.4696 14.0001 54.9609 14.2108 54.5858 14.5859C54.2107 14.9609 54 15.4697 54 16.0001V20.5001C52.4125 18.6601 50.7925 16.8876 48.97 15.0426C45.6347 11.7069 41.3902 9.42798 36.7671 8.49072C32.144 7.55346 27.3471 7.99938 22.976 9.77275C18.6048 11.5461 14.8532 14.5683 12.1899 18.4617C9.52652 22.3551 8.06957 26.947 8.00107 31.6637C7.93256 36.3804 9.25553 41.0126 11.8047 44.9817C14.3538 48.9508 18.0161 52.0807 22.3339 53.9803C26.6517 55.8798 31.4336 56.4649 36.082 55.6623C40.7304 54.8597 45.0392 52.705 48.47 49.4676C48.6611 49.287 48.8147 49.0706 48.9222 48.8306C49.0296 48.5907 49.0887 48.3319 49.0961 48.0692C49.1036 47.8064 49.0592 47.5447 48.9655 47.2991C48.8718 47.0534 48.7306 46.8287 48.55 46.6376C48.3695 46.4465 48.153 46.2929 47.9131 46.1854C47.6731 46.078 47.4144 46.0189 47.1516 46.0115C46.8888 46.004 46.6271 46.0485 46.3815 46.1422C46.1359 46.2359 45.9111 46.377 45.72 46.5576C42.8601 49.2528 39.2696 51.0457 35.3968 51.7125C31.5241 52.3793 27.5407 51.8904 23.9441 50.3069C20.3475 48.7234 17.2971 46.1154 15.1738 42.8086C13.0505 39.5018 11.9485 35.6428 12.0053 31.7135C12.0621 27.7841 13.2752 23.9585 15.4932 20.7145C17.7112 17.4705 20.8357 14.9518 24.4765 13.4729C28.1174 11.994 32.1133 11.6204 35.9652 12.3989C39.817 13.1774 43.3542 15.0734 46.135 17.8501C48.17 19.9101 49.9525 21.8951 51.75 24.0001H46C45.4696 24.0001 44.9609 24.2108 44.5858 24.5859C44.2107 24.9609 44 25.4697 44 26.0001C44 26.5305 44.2107 27.0392 44.5858 27.4143C44.9609 27.7894 45.4696 28.0001 46 28.0001H56C56.5305 28.0001 57.0392 27.7894 57.4143 27.4143C57.7893 27.0392 58 26.5305 58 26.0001V16.0001C58 15.4697 57.7893 14.9609 57.4143 14.5859C57.0392 14.2108 56.5305 14.0001 56 14.0001Z" fill="white"/>
</svg>
